<?xml version="1.0" encoding="UTF-8"?>
<svg version="1.1" xmlns="http://www.w3.org/2000/svg" width="500" height="500">
<path d="M0 0 C3.45195767 1.4258086 5.1014256 3.09746334 7.25 6.125 C7.77078125 6.84945312 8.2915625 7.57390625 8.828125 8.3203125 C9.40820312 9.15175781 9.40820312 9.15175781 10 10 C9.57847656 10.4125 9.15695313 10.825 8.72265625 11.25 C5.20191099 14.96127971 3.10989004 17.82309785 2.828125 23.015625 C3.22415109 27.58792621 5.10511569 30.96952716 8.0625 34.375 C12.02166941 37.69559369 15.96089256 37.20325918 20.91015625 37.28125 C21.79279648 37.29965942 22.67543671 37.31806885 23.58482361 37.33703613 C27.37128324 37.41588888 31.15792379 37.48360192 34.94458008 37.55224609 C37.70403198 37.60384233 40.46332453 37.66113555 43.22265625 37.71875 C44.08617203 37.73232544 44.94968781 37.74590088 45.83937073 37.7598877 C51.88717519 37.88717519 51.88717519 37.88717519 53 39 C53.0758074 41.18628532 53.08302922 43.37499712 53.0625 45.5625 C53.05682007 46.56047607 53.05682007 46.56047607 53.05102539 47.57861328 C53.03470167 50.4296017 53.00692353 53.28044762 52.97949219 56.13134766 C52.03278579 71.56013255 52.03278579 71.56013255 58 85 C62.4232401 88.01584552 66.7319512 88.91529805 72 88 C75.51584639 86.69731588 78.23776871 84.92043024 80.65625 82 C82.6173503 77.62172956 82.57004103 73.43619824 82.6875 68.6875 C82.72166016 67.75615234 82.75582031 66.82480469 82.79101562 65.86523438 C82.87315941 63.57694328 82.94241662 61.28901896 83 59 C86.6917053 60.73949311 89.28530048 62.85716552 92.25 65.6875 C93.14203125 66.51636719 94.0340625 67.34523438 94.953125 68.19921875 C97.55679598 71.76187541 97.46165665 73.67014656 97 78 C95.61870611 85.54658125 92.98335193 92.07166149 86.69921875 96.69140625 C78.68940699 101.73552139 71.01841497 104.33204367 61.55078125 102.53515625 C54.0544633 100.59506784 48.60602456 97.16948933 43.6875 91.1875 C39.21262216 82.73495298 38.49629859 74.92675841 38.3125 65.4375 C38.27833984 64.23802734 38.24417969 63.03855469 38.20898438 61.80273438 C38.12715546 58.86858316 38.0577937 55.93470636 38 53 C37.26475098 52.9906543 36.52950195 52.98130859 35.77197266 52.97167969 C32.38900851 52.91746722 29.0073525 52.83392029 25.625 52.75 C24.46871094 52.73582031 23.31242187 52.72164063 22.12109375 52.70703125 C11.6469654 52.41115192 3.4306276 50.20377138 -4.30859375 42.93359375 C-10.17902514 36.22259251 -11.37870754 28.76138059 -11.2734375 20.09765625 C-10.5244908 11.61316005 -5.75474224 5.93255731 0 0 Z " fill="#C1FD74" transform="translate(36,216)"/>
<path d="M0 0 C7.86371074 4.60976147 12.70814164 10.25165682 15.5625 18.9375 C16.40225841 22.50827895 16.68062922 25.79237034 16.66015625 29.45703125 C16.65693359 30.47861328 16.65371094 31.50019531 16.65039062 32.55273438 C16.63782227 34.13538086 16.63782227 34.13538086 16.625 35.75 C16.62048828 36.82443359 16.61597656 37.89886719 16.61132812 39.00585938 C16.59957729 41.64979683 16.58314787 44.29361952 16.5625 46.9375 C17.38862793 46.94160889 18.21475586 46.94571777 19.06591797 46.94995117 C22.1789986 46.97718246 25.29078543 47.02652839 28.40332031 47.09008789 C30.39366399 47.12424765 32.38438304 47.13369144 34.375 47.14257812 C43.49534583 47.34985871 50.87270804 48.52566138 57.69628906 54.94482422 C64.09746717 61.79481259 66.81955341 68.4954813 66.73046875 77.8671875 C66.47020404 81.07510138 65.57848057 83.8895583 64.5625 86.9375 C63.76585937 86.30521484 63.76585937 86.30521484 62.953125 85.66015625 C62.24671875 85.11230469 61.5403125 84.56445312 60.8125 84 C60.11640625 83.45472656 59.4203125 82.90945312 58.703125 82.34765625 C56.60157872 80.96324346 55.01928201 80.37463013 52.5625 79.9375 C52.53671875 79.35742188 52.5109375 78.77734375 52.484375 78.1796875 C52.08807473 72.72155202 51.23595809 69.22320111 47.5625 64.9375 C42.80662726 60.99637837 37.57427882 61.42137041 31.6875 61.3125 C29.75251752 61.26096918 27.81761449 61.20634994 25.8828125 61.1484375 C24.96790039 61.12233398 24.05298828 61.09623047 23.11035156 61.06933594 C20.88018851 60.95393846 18.75549348 60.71354478 16.5546875 60.3515625 C13.51804343 59.70605023 13.51804343 59.70605023 10.5625 60.9375 C9.16810336 61.00415376 7.77080125 61.02288199 6.375 61 C5.116875 60.979375 3.85875 60.95875 2.5625 60.9375 C2.5531543 59.75720215 2.54380859 58.5769043 2.53417969 57.36083984 C2.49419352 52.96593002 2.42841085 48.57171387 2.35498047 44.17724609 C2.3268208 42.27824846 2.30558142 40.3791347 2.29150391 38.47998047 C2.27000482 35.74386362 2.22331992 33.00913548 2.171875 30.2734375 C2.17064636 29.42945404 2.16941772 28.58547058 2.16815186 27.71591187 C2.03565878 22.33803283 1.14789585 19.19484989 -2.4375 14.9375 C-6.98830986 11.83467509 -11.08233113 11.16635568 -16.4375 11.9375 C-21.67893688 13.75184353 -23.8302686 16.09481667 -26.4375 20.9375 C-27.01453524 24.05255873 -27.04227155 27.11120384 -27.046875 30.2734375 C-27.06341125 31.15278961 -27.07994751 32.03214172 -27.09698486 32.93814087 C-27.14532914 35.72966592 -27.16680535 38.52064676 -27.1875 41.3125 C-27.21567108 43.21226676 -27.2456001 45.11200832 -27.27734375 47.01171875 C-27.35108434 51.653601 -27.40074173 56.29518355 -27.4375 60.9375 C-32.3875 60.9375 -37.3375 60.9375 -42.4375 60.9375 C-41.4375 56.9375 -41.4375 56.9375 -39.875 54.4375 C-37.03037513 47.51145683 -37.8325123 40.35433791 -40 33.3125 C-42.0993338 26.3647048 -41.75958029 20.2956074 -38.6875 13.6875 C-30.77178169 -0.1928793 -15.30069228 -6.96541378 0 0 Z " fill="#7FD659" transform="translate(116.4375,163.0625)"/>
<path d="M0 0 C5.1810116 1.96221148 9.12699369 4.10524851 12 9 C15.2324322 16.90635444 17.05599795 26.07200958 15.25 34.5 C14 37 14 37 12.453125 38.8515625 C9.90070432 42.62530275 10.27415859 46.62421322 11 51 C13.03308399 55.34628177 16.54561238 57.63262398 20.9152832 59.42211914 C24.91088432 60.52969472 28.95561232 60.18293486 33.0625 60 C40.15689399 59.68539273 45.05024073 59.75280095 50.80078125 64.48046875 C54.74860367 68.93834575 57.5635307 73.66373218 60.375 78.875 C65.44051352 88.22007354 71.78541619 97.79284383 82 102 C86.49751757 103.2203162 89.82172217 103.4078654 94.25 101.875 C102.17822961 96.4693889 107.92493584 88.05435558 111 79 C111.25269417 75.70714899 111.25269417 75.70714899 111 73 C106.89956699 71.06260376 103.44818923 70.71902234 98.9375 70.5625 C94.00102302 70.34138256 89.452345 69.73902946 84.6875 68.375 C79.80699677 66.99558455 76.16078132 67.13367525 71.19140625 67.8515625 C67.73503795 68.0856837 65.74544972 67.00886565 63 65 C60.01951561 61.52276822 59.4681899 58.38020737 59.64453125 53.9296875 C60.22128009 50.79876522 61.72795531 49.14581999 64 47 C67.77513566 44.70484415 70.5168422 44.71792319 74.8046875 45.34765625 C77.65728308 46.19531366 79.47882587 47.62362014 81.21508789 50.04467773 C82.21692068 52.54037876 82.18903424 54.54229446 82.12109375 57.22265625 C82.10361084 58.11863525 82.08612793 59.01461426 82.06811523 59.93774414 C82.03439819 60.95856079 82.03439819 60.95856079 82 62 C82.64437012 62.04487549 83.28874023 62.08975098 83.95263672 62.13598633 C86.92772257 62.34986224 89.90122898 62.58108522 92.875 62.8125 C93.88820313 62.88275391 94.90140625 62.95300781 95.9453125 63.02539062 C112.16273402 64.3248635 112.16273402 64.3248635 117.1875 69.0625 C119.57325956 77.6879384 116.17215437 85.09434281 112.02734375 92.65234375 C107.21524254 100.59833747 101.80391818 106.36622522 93.0625 109.75 C92.381875 109.8325 91.70125 109.915 91 110 C89.2675 110.2165625 89.2675 110.2165625 87.5 110.4375 C79.40129423 110.28668611 71.98579252 105.30675655 66.25 99.9375 C60.36033848 93.60132984 56.3110656 86.09860409 52.0859375 78.60546875 C51.48007813 77.53941406 50.87421875 76.47335937 50.25 75.375 C49.45335938 73.93253906 49.45335938 73.93253906 48.640625 72.4609375 C46.91903939 69.87855909 45.62850879 68.61664663 43 67 C40.65192584 66.66927365 40.65192584 66.66927365 38.1484375 66.8828125 C37.21902344 66.91882568 36.28960937 66.95483887 35.33203125 66.99194336 C34.35621094 67.03585205 33.38039062 67.07976074 32.375 67.125 C17.39754636 67.44674329 17.39754636 67.44674329 11 62 C9.27023988 60.29265578 7.72156376 58.58486919 6.25390625 56.6484375 C4.49172129 54.33179559 2.44370827 52.41084099 0.3125 50.4375 C-1 49 -1 49 -1 47 C-2.9490625 46.9690625 -2.9490625 46.9690625 -4.9375 46.9375 C-11.07715893 46.18688339 -14.86577712 43.51270807 -19 39 C-20.66504376 36.76606629 -22.13945075 34.45681149 -23.5625 32.0625 C-23.90933838 31.48991455 -24.25617676 30.9173291 -24.61352539 30.32739258 C-27.64860799 24.81789726 -27.87244432 20.1424936 -26.1953125 14.1015625 C-25.66550781 12.87566406 -25.66550781 12.87566406 -25.125 11.625 C-24.60292969 10.37589844 -24.60292969 10.37589844 -24.0703125 9.1015625 C-23 7 -23 7 -21 5 C-17.89652746 4.66984335 -15.84218824 4.49468706 -13.125 6.125 C-11.47145469 8.88090884 -11.60634432 10.85075452 -12 14 C-13.66273336 16.53785617 -14.73355011 16.9318384 -17.6875 17.6875 C-18.450625 17.790625 -19.21375 17.89375 -20 18 C-20 25.91284828 -16.3919758 31.33339045 -11 37 C-6.6051838 39.65852223 -3.86489037 40.49911445 1.1015625 39.65234375 C4.88908934 38.35086848 7.25115539 35.49768921 9 32 C9.4966196 25.17148052 7.95070749 19.50909651 6 13 C5.65826458 11.66879536 5.32156694 10.33621989 5 9 C1.62537285 9.54723683 -0.08235 10.0549 -3 12 C-6.14450424 11.84277479 -7.56080186 11.40991827 -9.875 9.25 C-11 7 -11 7 -10.875 4.4375 C-8.70339308 -1.61197642 -6.01847718 -1.4799534 0 0 Z " fill="#C5F87D" transform="translate(61,180)"/>
<path d="M0 0 C5.18194376 1.75990543 6.63940353 5.53648746 9.3125 10.125 C10.10278356 11.41441003 10.89594892 12.70205656 11.69140625 13.98828125 C12.52451805 15.34569157 13.35654829 16.70376628 14.1875 18.0625 C14.59331299 18.72523926 14.99912598 19.38797852 15.41723633 20.07080078 C18.3125 24.89189019 18.3125 24.89189019 18.3125 27.125 C18.9725 27.125 19.6325 27.125 20.3125 27.125 C20.58505615 26.39958008 20.8576123 25.67416016 21.13842773 24.92675781 C22.27579626 22.21258831 23.57885924 19.81418472 25.09765625 17.296875 C25.62810547 16.41515625 26.15855469 15.5334375 26.70507812 14.625 C27.25615234 13.7175 27.80722656 12.81 28.375 11.875 C28.92994141 10.95203125 29.48488281 10.0290625 30.05664062 9.078125 C34.1650916 2.2724084 34.1650916 2.2724084 35.3125 1.125 C37.64547433 1.08407063 39.97955225 1.08258277 42.3125 1.125 C43.51633122 4.88951292 43.45690879 8.61433298 43.4453125 12.5234375 C43.44626923 13.23601715 43.44722595 13.9485968 43.44821167 14.68276978 C43.44889072 16.1872771 43.44705563 17.6917874 43.44287109 19.19628906 C43.43753475 21.48509399 43.4428172 23.77370128 43.44921875 26.0625 C43.44855761 27.52864626 43.44727571 28.9947924 43.4453125 30.4609375 C43.44733673 31.13925629 43.44936096 31.81757507 43.45144653 32.51644897 C43.43211086 36.48718179 43.07250104 40.22839087 42.3125 44.125 C39.97955225 44.16741723 37.64547433 44.16592937 35.3125 44.125 C33.62949331 42.44199331 34.08440923 40.30491273 33.99609375 37.99609375 C33.95419922 36.96162109 33.91230469 35.92714844 33.86914062 34.86132812 C33.82982422 33.77271484 33.79050781 32.68410156 33.75 31.5625 C33.70681641 30.47001953 33.66363281 29.37753906 33.61914062 28.25195312 C33.51267932 25.54310436 33.41066484 22.83416008 33.3125 20.125 C32.85194214 20.93505493 32.85194214 20.93505493 32.38208008 21.76147461 C30.97993147 24.20529456 29.55296238 26.63368081 28.125 29.0625 C27.64224609 29.91263672 27.15949219 30.76277344 26.66210938 31.63867188 C26.18193359 32.44755859 25.70175781 33.25644531 25.20703125 34.08984375 C24.77237549 34.8387085 24.33771973 35.58757324 23.88989258 36.35913086 C21.85453604 38.63768431 20.29066548 38.80677303 17.3125 39.125 C13.3125 33.125 9.3125 27.125 5.3125 21.125 C5.28744385 21.7862085 5.2623877 22.44741699 5.23657227 23.12866211 C5.12096898 26.10682305 4.99808246 29.0846392 4.875 32.0625 C4.83568359 33.10341797 4.79636719 34.14433594 4.75585938 35.21679688 C4.71396484 36.20615234 4.67207031 37.19550781 4.62890625 38.21484375 C4.57391968 39.58950806 4.57391968 39.58950806 4.51782227 40.99194336 C4.3125 43.125 4.3125 43.125 3.3125 44.125 C0.3125 44.25 0.3125 44.25 -2.6875 44.125 C-4.63613925 42.17636075 -3.8166874 39.2269128 -3.82644653 36.63378906 C-3.8244223 35.72338867 -3.82239807 34.81298828 -3.8203125 33.875 C-3.82126923 32.94655273 -3.82222595 32.01810547 -3.82321167 31.06152344 C-3.82389355 29.09440035 -3.82203872 27.12727504 -3.81787109 25.16015625 C-3.81252295 22.13796974 -3.81781582 19.11593185 -3.82421875 16.09375 C-3.82355797 14.18749967 -3.82227681 12.28124943 -3.8203125 10.375 C-3.82233673 9.46459961 -3.82436096 8.55419922 -3.82644653 7.61621094 C-3.79844808 0.176672 -3.79844808 0.176672 0 0 Z " fill="#C1FB76" transform="translate(207.6875,214.875)"/>
<path d="M0 0 C5.10863896 -0.0246501 10.21724359 -0.04283607 15.32592773 -0.05493164 C17.06519168 -0.05997204 18.80445136 -0.0668043 20.54370117 -0.07543945 C23.03825937 -0.08751792 25.53276173 -0.09323108 28.02734375 -0.09765625 C28.80963852 -0.10281754 29.59193329 -0.10797882 30.39793396 -0.11329651 C32.26567114 -0.11349226 34.13329204 -0.06199694 36 0 C37 1 37 1 37.09765625 3.81640625 C37.08605469 5.05261719 37.07445312 6.28882813 37.0625 7.5625 C37.05871338 8.22781738 37.05492676 8.89313477 37.05102539 9.57861328 C37.03470167 12.4296017 37.00692353 15.28044762 36.97949219 18.13134766 C36.03278579 33.56013255 36.03278579 33.56013255 42 47 C46.4232401 50.01584552 50.7319512 50.91529805 56 50 C59.51584639 48.69731588 62.23776871 46.92043024 64.65625 44 C66.6173503 39.62172956 66.57004103 35.43619824 66.6875 30.6875 C66.72166016 29.75615234 66.75582031 28.82480469 66.79101562 27.86523438 C66.87315941 25.57694328 66.94241662 23.28901896 67 21 C70.6917053 22.73949311 73.28530048 24.85716552 76.25 27.6875 C77.14203125 28.51636719 78.0340625 29.34523438 78.953125 30.19921875 C81.55679598 33.76187541 81.46165665 35.67014656 81 40 C79.61870611 47.54658125 76.98335193 54.07166149 70.69921875 58.69140625 C62.68940699 63.73552139 55.01841497 66.33204367 45.55078125 64.53515625 C38.0544633 62.59506784 32.60602456 59.16948933 27.6875 53.1875 C23.14498582 44.60719544 22.60440956 37.0790239 22.8125 27.4375 C22.83280273 25.63829102 22.83280273 25.63829102 22.85351562 23.80273438 C22.888592 20.86801121 22.93774573 17.93425118 23 15 C23.66 15 24.32 15 25 15 C25 24.57 25 34.14 25 44 C25.66 44 26.32 44 27 44 C27.66 46.64 28.32 49.28 29 52 C29.66 52 30.32 52 31 52 C31 52.99 31 53.98 31 55 C32.485 54.505 32.485 54.505 34 54 C33.67 53.34 33.34 52.68 33 52 C33.99 52 34.98 52 36 52 C36 50.68 36 49.36 36 48 C36.66 48 37.32 48 38 48 C37.690625 47.236875 37.38125 46.47375 37.0625 45.6875 C35.08960528 40.69723689 34.86964088 36.48293046 34.90234375 31.17578125 C34.9037587 30.31438034 34.90517365 29.45297943 34.90663147 28.56547546 C34.9122286 25.81444831 34.92478054 23.06350256 34.9375 20.3125 C34.94251537 18.4472668 34.94707821 16.58203233 34.95117188 14.71679688 C34.96134616 10.14447466 34.98092213 5.57232845 35 1 C23.45 1 11.9 1 0 1 C0 0.67 0 0.34 0 0 Z " fill="#C6FB7F" transform="translate(52,254)"/>
<path d="M0 0 C1.051875 0.0103125 2.10375 0.020625 3.1875 0.03125 C11.04170297 0.28398425 18.5468052 1.72772366 24.18579102 7.64355469 C28.96022558 14.08171756 29.19856964 20.12186085 28.5 27.875 C26.89580482 33.48509971 23.63624248 37.97601226 18.5 40.875 C11.49437095 43.70955933 4.92660849 44.29412595 -2.5625 44.125 C-3.51060547 44.11984375 -4.45871094 44.1146875 -5.43554688 44.109375 C-12.34487174 44.03012826 -12.34487174 44.03012826 -13.5 42.875 C-13.58874135 39.77248799 -13.61518455 36.6923188 -13.59765625 33.58984375 C-13.5962413 32.65902481 -13.59482635 31.72820587 -13.59336853 30.7691803 C-13.58775172 27.78358809 -13.5751964 24.79806971 -13.5625 21.8125 C-13.55748716 19.79362087 -13.55292388 17.77474057 -13.54882812 15.75585938 C-13.53777683 10.79554428 -13.52050095 5.83528468 -13.5 0.875 C-9.4898837 -1.13005815 -4.39209259 -0.13594572 0 0 Z M-4.5 8.875 C-4.5 17.455 -4.5 26.035 -4.5 34.875 C1.58181259 36.90227086 7.89317265 36.44759288 13.76953125 33.90234375 C16.9092939 32.03833116 18.04977403 30.19843451 19.5 26.875 C20.32542961 22.48718995 20.52997285 18.66373027 18.25390625 14.7109375 C15.7935704 11.72908408 14.21921915 10.11473972 10.5 8.875 C7.92502932 8.80464561 5.38550071 8.7815066 2.8125 8.8125 C0.399375 8.833125 -2.01375 8.85375 -4.5 8.875 Z " fill="#C4FB79" transform="translate(313.5,215.125)"/>
<path d="M0 0 C0.04241723 2.33294775 0.04092937 4.66702567 0 7 C-1 8 -1 8 -3.04125977 8.11352539 C-3.91580811 8.10828857 -4.79035645 8.10305176 -5.69140625 8.09765625 C-6.63564453 8.09443359 -7.57988281 8.09121094 -8.55273438 8.08789062 C-9.54595703 8.07951172 -10.53917969 8.07113281 -11.5625 8.0625 C-12.55958984 8.05798828 -13.55667969 8.05347656 -14.58398438 8.04882812 C-17.05604849 8.03700007 -19.52799518 8.02051849 -22 8 C-22 10.97 -22 13.94 -22 17 C-15.73 17 -9.46 17 -3 17 C-2 19 -2 19 -3 25 C-9.27 25 -15.54 25 -22 25 C-21.67 27.97 -21.34 30.94 -21 34 C-13.74 34.33 -6.48 34.66 1 35 C1 37.31 1 39.62 1 42 C-0.90849948 43.90849948 -4.31478774 43.13059633 -6.84375 43.1328125 C-7.52804077 43.13376923 -8.21233154 43.13472595 -8.9173584 43.13571167 C-10.36661877 43.1363933 -11.81588218 43.13454023 -13.26513672 43.13037109 C-15.49062928 43.12502252 -17.71592001 43.1303166 -19.94140625 43.13671875 C-21.34635461 43.13605797 -22.75130285 43.1347768 -24.15625 43.1328125 C-25.44337891 43.13168457 -26.73050781 43.13055664 -28.05664062 43.12939453 C-31 43 -31 43 -32 42 C-32.101137 38.98191937 -32.13968909 35.98719487 -32.1328125 32.96875 C-32.13376923 32.06249878 -32.13472595 31.15624756 -32.13571167 30.22253418 C-32.13639353 28.30248953 -32.13453882 26.38244259 -32.13037109 24.46240234 C-32.12502292 21.51264296 -32.13031588 18.56303586 -32.13671875 15.61328125 C-32.13605797 13.75260383 -32.13477681 11.8919265 -32.1328125 10.03125 C-32.13483673 9.14272339 -32.13686096 8.25419678 -32.13894653 7.33874512 C-32.11494988 1.11494988 -32.11494988 1.11494988 -31 0 C-26.57416165 -0.38715937 -22.12688597 -0.47074438 -17.6875 -0.625 C-16.43775391 -0.6765625 -15.18800781 -0.728125 -13.90039062 -0.78125 C-12.69962891 -0.82507813 -11.49886719 -0.86890625 -10.26171875 -0.9140625 C-9.15787842 -0.9548291 -8.05403809 -0.9955957 -6.91674805 -1.03759766 C-4.38360624 -1.00494479 -2.40085365 -0.7542521 0 0 Z " fill="#C6FC78" transform="translate(292,216)"/>
<path d="M0 0 C3.5234375 1.05078125 3.5234375 1.05078125 5.421875 3.5078125 C6.15277344 5.16876953 6.15277344 5.16876953 6.8984375 6.86328125 C7.17461914 7.47059082 7.45080078 8.07790039 7.73535156 8.70361328 C8.34728113 10.05744867 8.94688459 11.41690154 9.53613281 12.78076172 C10.61116736 15.25249051 11.73148578 17.70039479 12.859375 20.1484375 C16.32331599 27.70568341 19.68415458 35.23376816 22.5234375 43.05078125 C21.5234375 44.05078125 21.5234375 44.05078125 19.67578125 44.1484375 C17.625 44.11588542 15.57421875 44.08333333 13.5234375 44.05078125 C11.8734375 41.08078125 10.2234375 38.11078125 8.5234375 35.05078125 C2.2534375 35.05078125 -4.0165625 35.05078125 -10.4765625 35.05078125 C-11.7965625 37.69078125 -13.1165625 40.33078125 -14.4765625 43.05078125 C-17.43320769 44.52910385 -20.21885987 44.11110908 -23.4765625 44.05078125 C-22.79594474 39.258147 -20.93810094 35.1747 -18.984375 30.79296875 C-18.63776825 30.00810089 -18.2911615 29.22323303 -17.93405151 28.4145813 C-17.20193602 26.76108491 -16.46718929 25.10875136 -15.72998047 23.45751953 C-14.60400788 20.93126774 -13.49102802 18.39956199 -12.37890625 15.8671875 C-11.66484284 14.25876792 -10.95002455 12.65068322 -10.234375 11.04296875 C-9.90301544 10.28668182 -9.57165588 9.5303949 -9.23025513 8.75119019 C-5.32840277 0.0778306 -5.32840277 0.0778306 0 0 Z M-1.4765625 12.05078125 C-2.34503081 13.79372803 -3.19586877 15.54546788 -4.0390625 17.30078125 C-4.51472656 18.2753125 -4.99039062 19.24984375 -5.48046875 20.25390625 C-6.51166523 23.14934422 -6.59003038 24.25044286 -5.4765625 27.05078125 C-1.13392388 27.21780581 1.73304384 27.18078122 5.5234375 25.05078125 C4.74002631 23.06833233 3.94646264 21.08989266 3.1484375 19.11328125 C2.70757812 18.01113281 2.26671875 16.90898437 1.8125 15.7734375 C0.81302318 12.93847939 0.81302318 12.93847939 -1.4765625 12.05078125 Z " fill="#C4FA7B" transform="translate(429.4765625,214.94921875)"/>
<path d="M0 0 C5.06385764 -0.22649842 5.06385764 -0.22649842 8 1 C10.46745944 4.23654781 11.83200298 7.85514905 13.3125 11.625 C13.72822266 12.61113281 14.14394531 13.59726563 14.57226562 14.61328125 C15.74182225 17.39864821 16.87205118 20.19759735 18 23 C18.98671496 25.33936394 19.99158782 27.66988255 21 30 C22.04473563 27.79307325 23.08642893 25.58482897 24.125 23.375 C24.59715942 22.37122314 24.59715942 22.37122314 25.07885742 21.34716797 C27.80424111 15.51028746 30.30361773 9.59607055 32.73828125 3.6328125 C34 1 34 1 36 0 C38.3329866 -0.04022391 40.66706666 -0.04320247 43 0 C42.40662366 4.69440489 41.09312619 8.53901967 39.19921875 12.8671875 C38.78274834 13.82481491 38.78274834 13.82481491 38.35786438 14.80178833 C37.77176307 16.14609541 37.18244682 17.48900494 36.59008789 18.83056641 C35.69440961 20.85934917 34.80825323 22.8920712 33.92382812 24.92578125 C31.11103231 31.36867022 28.23434618 37.75491676 25 44 C22.36 44 19.72 44 17 44 C12.20345027 34.99623771 8.03761306 25.74071063 4 16.375 C3.4949292 15.22467285 2.9898584 14.0743457 2.46948242 12.88916016 C2.00517822 11.79909668 1.54087402 10.7090332 1.0625 9.5859375 C0.64097656 8.6067334 0.21945312 7.6275293 -0.21484375 6.61865234 C-1.03821018 3.87256145 -1.00560963 2.63972527 0 0 Z " fill="#C3FA77" transform="translate(364,215)"/>
<path d="M0 0 C3.37498287 2.74217358 4.65791176 4.24817716 5.484375 8.48046875 C5.6564712 10.19383831 5.78434392 11.91245711 5.859375 13.6328125 C5.9930754 15.88343595 6.38228469 17.83799643 7 20 C6.37351563 19.97679687 5.74703125 19.95359375 5.1015625 19.9296875 C4.28429687 19.91164062 3.46703125 19.89359375 2.625 19.875 C1.81289062 19.85179687 1.00078125 19.82859375 0.1640625 19.8046875 C-2.21342243 19.78629949 -2.21342243 19.78629949 -4 22 C-8.42158491 21.91657387 -10.46826387 21.45081976 -13.875 18.5625 C-16.86822652 14.95302096 -17.34530607 12.76980675 -17.28515625 8.03515625 C-16.83321304 4.80964378 -15.31988026 3.19099803 -13 1 C-8.63025043 -1.65666116 -4.81955307 -1.43469762 0 0 Z " fill="#C2FB77" transform="translate(138,226)"/>
<path d="M0 0 C2.69082872 0.17635452 5.32851446 0.61835921 8 1 C8.02480163 6.15950168 8.04290809 11.31896831 8.05493164 16.47851562 C8.05994651 18.23210251 8.06676002 19.98568524 8.07543945 21.73925781 C8.08763 24.2662865 8.09325688 26.79325968 8.09765625 29.3203125 C8.10281754 30.09867462 8.10797882 30.87703674 8.11329651 31.6789856 C8.1137272 35.9003949 7.8358664 39.84091388 7 44 C4.36 44 1.72 44 -1 44 C-1.02464513 37.8944529 -1.04283371 31.78893449 -1.05493164 25.68334961 C-1.05997288 23.60456844 -1.06680574 21.52579084 -1.07543945 19.44702148 C-1.08751422 16.46597414 -1.09323024 13.48497351 -1.09765625 10.50390625 C-1.10539818 9.10078941 -1.10539818 9.10078941 -1.11329651 7.66932678 C-1.11337204 6.80850998 -1.11344757 5.94769318 -1.11352539 5.06079102 C-1.115746 4.29912125 -1.11796661 3.53745148 -1.12025452 2.75270081 C-1 1 -1 1 0 0 Z " fill="#C0FC72" transform="translate(351,215)"/>
<path d="M0 0 C1.65 0 3.3 0 5 0 C5 13.86 5 27.72 5 42 C3.02 42 1.04 42 -1 42 C-2.74506615 40.25493385 -2.23282784 37.80960857 -2.31640625 35.43359375 C-2.37924805 33.7465332 -2.37924805 33.7465332 -2.44335938 32.02539062 C-2.48267578 30.84138672 -2.52199219 29.65738281 -2.5625 28.4375 C-2.60568359 27.24962891 -2.64886719 26.06175781 -2.69335938 24.83789062 C-2.79983546 21.89205216 -2.90184841 18.9461257 -3 16 C-3.99 16.66 -4.98 17.32 -6 18 C-6.8125 14.875 -6.8125 14.875 -7 11 C-4.625 7.8125 -4.625 7.8125 -2 5 C-1.22166466 2.81785432 -1.22166466 2.81785432 -1 1 C-0.67 0.67 -0.34 0.34 0 0 Z " fill="#C0FD72" transform="translate(244,217)"/>
<path d="M0 0 C1.32 0 2.64 0 4 0 C5.54569191 12.90861619 5.54569191 12.90861619 3 18 C2.46375 18.61875 1.9275 19.2375 1.375 19.875 C-0.39613026 22.6122013 -0.10967811 24.7796474 0.02734375 27.9609375 C-0.01174202 30.87561886 -0.92653262 33.31633154 -2 36 C-4 34.625 -4 34.625 -6 33 C-6 32.34 -6 31.68 -6 31 C-7.32 30.67 -8.64 30.34 -10 30 C-9.73624047 24.63688964 -9.73624047 24.63688964 -9 22 C-6.5 20.125 -6.5 20.125 -4 19 C-3.67 18.34 -3.34 17.68 -3 17 C-2.34 17 -1.68 17 -1 17 C-1 16.34 -1 15.68 -1 15 C-0.34 14.67 0.32 14.34 1 14 C0.835 12.80375 0.67 11.6075 0.5 10.375 C0.06029433 6.89451285 -0.08780713 3.51228512 0 0 Z " fill="#BFFB73" transform="translate(72,199)"/>
<path d="M0 0 C0.99 0.33 1.98 0.66 3 1 C3.18501977 5.07043497 2.89096914 7.44052869 1 11 C0.835 12.010625 0.67 13.02125 0.5 14.0625 C0 17 0 17 -2 20 C-5.625 20.1875 -5.625 20.1875 -9 20 C-10.06775224 18.03533587 -11.06553465 16.03144641 -12 14 C-11.67 13.34 -11.34 12.68 -11 12 C-10.01 12 -9.02 12 -8 12 C-8 10.68 -8 9.36 -8 8 C-8.66 8 -9.32 8 -10 8 C-10 6.02 -10 4.04 -10 2 C-8.49440461 3.96382007 -7.10868317 5.78263366 -6 8 C-4.00136244 7.42055068 -4.00136244 7.42055068 -2 6 C-0.70768358 2.95800528 -0.70768358 2.95800528 0 0 Z " fill="#C0FC73" transform="translate(391,237)"/>
<path d="M0 0 C6.27 0 12.54 0 19 0 C20 2 20 2 19 8 C12.73 8 6.46 8 0 8 C0.33 6.35 0.66 4.7 1 3 C0.67 2.01 0.34 1.02 0 0 Z " fill="#C8F487" transform="translate(270,233)"/>
<path d="M0 0 C1.134375 0.020625 2.26875 0.04125 3.4375 0.0625 C4.64133122 3.82701292 4.58190879 7.55183298 4.5703125 11.4609375 C4.57174759 12.52980698 4.57174759 12.52980698 4.57321167 13.62026978 C4.57389072 15.1247771 4.57205563 16.6292874 4.56787109 18.13378906 C4.56253475 20.42259399 4.5678172 22.71120128 4.57421875 25 C4.57355761 26.46614626 4.57227571 27.9322924 4.5703125 29.3984375 C4.57233673 30.07675629 4.57436096 30.75507507 4.57644653 31.45394897 C4.55711086 35.42468179 4.19750104 39.16589087 3.4375 43.0625 C3.1075 43.0625 2.7775 43.0625 2.4375 43.0625 C2.4375 29.2025 2.4375 15.3425 2.4375 1.0625 C0.4575 1.7225 -1.5225 2.3825 -3.5625 3.0625 C-3.8925 4.7125 -4.2225 6.3625 -4.5625 8.0625 C-5.5525 8.3925 -6.5425 8.7225 -7.5625 9.0625 C-7.871875 10.196875 -8.18125 11.33125 -8.5 12.5 C-9.5625 16.0625 -9.5625 16.0625 -11.625 17.25 C-12.264375 17.518125 -12.90375 17.78625 -13.5625 18.0625 C-14.23406616 19.99868425 -14.23406616 19.99868425 -14.5625 22.0625 C-15.2225 23.0525 -15.8825 24.0425 -16.5625 25.0625 C-17.2225 24.7325 -17.8825 24.4025 -18.5625 24.0625 C-16.25229912 20.2486023 -13.93895684 16.43661987 -11.625 12.625 C-10.96564453 11.53638672 -10.30628906 10.44777344 -9.62695312 9.32617188 C-8.99853516 8.29169922 -8.37011719 7.25722656 -7.72265625 6.19140625 C-7.14136963 5.23306885 -6.56008301 4.27473145 -5.96118164 3.28735352 C-3.93797887 0.06908735 -3.93797887 0.06908735 0 0 Z " fill="#DBFAAD" transform="translate(246.5625,215.9375)"/>
<path d="M0 0 C0.721875 0.00257813 1.44375 0.00515625 2.1875 0.0078125 C2.909375 0.00523437 3.63125 0.00265625 4.375 0 C6.1875 0.1328125 6.1875 0.1328125 7.1875 1.1328125 C7.64184298 6.35775682 7.64184298 6.35775682 6.125 8.9453125 C3.27822753 10.69010853 0.46903235 10.82323398 -2.8125 11.1328125 C-2.8125 13.4428125 -2.8125 15.7528125 -2.8125 18.1328125 C-4.1325 17.8028125 -5.4525 17.4728125 -6.8125 17.1328125 C-7.0357717 13.22555776 -6.37664468 10.69558649 -4.8125 7.1328125 C-4.461875 6.0603125 -4.11125 4.9878125 -3.75 3.8828125 C-2.48847709 0.1823453 -2.48847709 0.1823453 0 0 Z " fill="#C0FC73" transform="translate(41.8125,186.8671875)"/>
<path d="M0 0 C4.96750477 0.45159134 8.35237056 2.76666921 12 6 C15 10.16129032 15 10.16129032 15 13 C13.68 13 12.36 13 11 13 C10.01 13.495 10.01 13.495 9 14 C8.60620426 16.94641327 8.60620426 16.94641327 8.5 20.375 C8.22090261 26.66864608 8.22090261 26.66864608 6 30 C5.34 29.67 4.68 29.34 4 29 C4.32097656 28.44054687 4.64195312 27.88109375 4.97265625 27.3046875 C6.7703994 23.27172758 6.61322534 19.31983182 6 15 C4.22026647 11.18641672 4.22026647 11.18641672 1 9 C-3.30682978 7.92589959 -7.58147714 7.37521863 -12 7 C-12 6.67 -12 6.34 -12 6 C1.81776765 5.44646925 1.81776765 5.44646925 7 9 C7.66 7.68 8.32 6.36 9 5 C7.35 5.33 5.7 5.66 4 6 C4 5.34 4 4.68 4 4 C2.68 3.34 1.36 2.68 0 2 C0 1.34 0 0.68 0 0 Z " fill="#C8F588" transform="translate(326,217)"/>
<path d="M0 0 C5.05000161 1.71509489 6.75544059 5.63654466 9.3125 10.125 C8.9825 10.785 8.6525 11.445 8.3125 12.125 C7.9825 11.135 7.6525 10.145 7.3125 9.125 C5.29741642 8.39176204 5.29741642 8.39176204 3.3125 8.125 C3.3125 6.805 3.3125 5.485 3.3125 4.125 C0.3425 3.63 0.3425 3.63 -2.6875 3.125 C-2.3575 15.995 -2.0275 28.865 -1.6875 42.125 C-0.3675 42.125 0.9525 42.125 2.3125 42.125 C2.6425 34.865 2.9725 27.605 3.3125 20.125 C3.6425 20.125 3.9725 20.125 4.3125 20.125 C4.34137236 23.93748426 4.35925492 27.7499407 4.375 31.5625 C4.38337891 32.65111328 4.39175781 33.73972656 4.40039062 34.86132812 C4.40361328 35.89580078 4.40683594 36.93027344 4.41015625 37.99609375 C4.41539307 38.95443115 4.42062988 39.91276855 4.42602539 40.90014648 C4.3125 43.125 4.3125 43.125 3.3125 44.125 C0.3125 44.25 0.3125 44.25 -2.6875 44.125 C-4.63613925 42.17636075 -3.8166874 39.2269128 -3.82644653 36.63378906 C-3.8244223 35.72338867 -3.82239807 34.81298828 -3.8203125 33.875 C-3.82126923 32.94655273 -3.82222595 32.01810547 -3.82321167 31.06152344 C-3.82389355 29.09440035 -3.82203872 27.12727504 -3.81787109 25.16015625 C-3.81252295 22.13796974 -3.81781582 19.11593185 -3.82421875 16.09375 C-3.82355797 14.18749967 -3.82227681 12.28124943 -3.8203125 10.375 C-3.82233673 9.46459961 -3.82436096 8.55419922 -3.82644653 7.61621094 C-3.79844808 0.176672 -3.79844808 0.176672 0 0 Z " fill="#D1F68C" transform="translate(207.6875,214.875)"/>
<path d="M0 0 C1.20366211 0.00483398 1.20366211 0.00483398 2.43164062 0.00976562 C3.68170898 0.02233398 3.68170898 0.02233398 4.95703125 0.03515625 C6.22450195 0.04192383 6.22450195 0.04192383 7.51757812 0.04882812 C9.6015928 0.06060222 11.68557102 0.07853735 13.76953125 0.09765625 C14.09953125 1.74765625 14.42953125 3.39765625 14.76953125 5.09765625 C6.18953125 5.09765625 -2.39046875 5.09765625 -11.23046875 5.09765625 C-10.24046875 4.76765625 -9.25046875 4.43765625 -8.23046875 4.09765625 C-7.90046875 3.10765625 -7.57046875 2.11765625 -7.23046875 1.09765625 C-4.46481493 0.17577164 -2.84763173 -0.02019597 0 0 Z " fill="#C0FE71" transform="translate(277.23046875,251.90234375)"/>
<path d="M0 0 C0.33 0 0.66 0 1 0 C1.33 12.87 1.66 25.74 2 39 C11.9 39.33 21.8 39.66 32 40 C32.495 39.01 32.495 39.01 33 38 C32.67 39.32 32.34 40.64 32 42 C27.60343827 42.02465504 23.2069128 42.04283842 18.81030273 42.05493164 C17.31355082 42.05997121 15.81680384 42.06680287 14.32006836 42.07543945 C12.17300193 42.08752159 10.02600038 42.09323191 7.87890625 42.09765625 C5.93866577 42.10551147 5.93866577 42.10551147 3.95922852 42.11352539 C1 42 1 42 0 41 C-0.08871273 37.97022196 -0.1151935 34.96332978 -0.09765625 31.93359375 C-0.0962413 31.02497086 -0.09482635 30.11634796 -0.09336853 29.18019104 C-0.08775193 26.26592779 -0.07519665 23.35174019 -0.0625 20.4375 C-0.05748714 18.46679798 -0.05292386 16.49609476 -0.04882812 14.52539062 C-0.03777711 9.68356441 -0.02050138 4.84179505 0 0 Z " fill="#EBFCD3" transform="translate(260,217)"/>
<path d="M0 0 C0.66 0 1.32 0 2 0 C2 12.54 2 25.08 2 38 C-2.95 38 -7.9 38 -13 38 C-11.96846241 33.87384964 -10.71595986 32.1540179 -8 29 C-8.33 31.31 -8.66 33.62 -9 36 C-6.03 36.33 -3.06 36.66 0 37 C0 24.79 0 12.58 0 0 Z " fill="#85C869" transform="translate(87,186)"/>
<path d="M0 0 C2.64 0.33 5.28 0.66 8 1 C8.02480163 6.15950168 8.04290809 11.31896831 8.05493164 16.47851562 C8.05994651 18.23210251 8.06676002 19.98568524 8.07543945 21.73925781 C8.08763 24.2662865 8.09325688 26.79325968 8.09765625 29.3203125 C8.10281754 30.09867462 8.10797882 30.87703674 8.11329651 31.6789856 C8.1137272 35.9003949 7.8358664 39.84091388 7 44 C4.36 44 1.72 44 -1 44 C1 42 1 42 5 41 C5.33 28.13 5.66 15.26 6 2 C3.69 2 1.38 2 -1 2 C-0.67 1.34 -0.34 0.68 0 0 Z " fill="#E2FBB0" transform="translate(351,215)"/>
<path d="M0 0 C0.66 0 1.32 0 2 0 C2 9.57 2 19.14 2 29 C2.66 29 3.32 29 4 29 C4.66 31.64 5.32 34.28 6 37 C6.66 37 7.32 37 8 37 C8 37.99 8 38.98 8 40 C9.65 40.66 11.3 41.32 13 42 C13 42.66 13 43.32 13 44 C14.98 44.66 16.96 45.32 19 46 C19 46.66 19 47.32 19 48 C11.87691694 45.62563898 6.57882837 41.64639554 3 35 C-0.37221258 27.56427627 -0.36131217 20.49079731 -0.1875 12.4375 C-0.17396484 11.23802734 -0.16042969 10.03855469 -0.14648438 8.80273438 C-0.111408 5.86801121 -0.06225427 2.93425118 0 0 Z " fill="#C9F28E" transform="translate(75,269)"/>
<path d="M0 0 C0.268125 0.639375 0.53625 1.27875 0.8125 1.9375 C1.88667752 4.33131686 1.88667752 4.33131686 5 5 C5 5.66 5 6.32 5 7 C6.32 7.66 7.64 8.32 9 9 C9.66 8.01 10.32 7.02 11 6 C12.0209375 7.3921875 12.0209375 7.3921875 13.0625 8.8125 C15.94305675 12.31386639 18.76787899 13.50631023 23 15 C23 15.33 23 15.66 23 16 C19.50765756 16.09978121 16.40562852 15.77842938 13 15 C13 15.66 13 16.32 13 17 C8.95206075 15.65068692 7.49372936 12.98752697 5.234375 9.60546875 C3.7454718 7.66895225 2.18538407 7.0146426 0 6 C-0.75 3.875 -0.75 3.875 -1 2 C-2.65 2 -4.3 2 -6 2 C-3 0 -3 0 0 0 Z " fill="#C5F777" transform="translate(61,225)"/>
<path d="M0 0 C2.15268335 2.22180621 4.10932084 4.55284434 6 7 C5.360625 7.268125 4.72125 7.53625 4.0625 7.8125 C1.66868314 8.88667752 1.66868314 8.88667752 1 12 C0.401875 11.071875 -0.19625 10.14375 -0.8125 9.1875 C-2.45272845 6.79745282 -3.8718917 4.91529747 -6 3 C-3.525 3.495 -3.525 3.495 -1 4 C-1.66 3.01 -2.32 2.02 -3 1 C-5.58380177 0.74969023 -5.58380177 0.74969023 -8 1 C-8 0.01 -8 -0.98 -8 -2 C-9.5159375 -1.505 -9.5159375 -1.505 -11.0625 -1 C-16.478827 0.53499146 -21.00121569 0.7444306 -26 -2 C-5.76955043 -3.88817529 -5.76955043 -3.88817529 0 0 Z " fill="#CBF589" transform="translate(110,243)"/>
<path d="M0 0 C0.33 1.32 0.66 2.64 1 4 C0.34 4 -0.32 4 -1 4 C-1 3.01 -1 2.02 -1 1 C-2.98 1.33 -4.96 1.66 -7 2 C-6.49396008 4.16874252 -6.00016187 5.99967627 -5 8 C-2.47266765 8.65555119 -2.47266765 8.65555119 0 9 C-1.1875 10.5625 -1.1875 10.5625 -3 12 C-6.17011158 11.92074721 -7.55094611 11.41911696 -9.875 9.25 C-11 7 -11 7 -10.875 4.4375 C-8.68325911 -1.66806392 -6.05706827 -1.25712738 0 0 Z " fill="#CDF68F" transform="translate(61,180)"/>
<path d="M0 0 C3.45195767 1.4258086 5.1014256 3.09746334 7.25 6.125 C7.77078125 6.84945312 8.2915625 7.57390625 8.828125 8.3203125 C9.40820312 9.15175781 9.40820312 9.15175781 10 10 C8.02 12.31 6.04 14.62 4 17 C2.88714706 12.54858824 3.46155064 11.16286298 5 7 C5 6.34 5 5.68 5 5 C2.05270463 3.84188612 2.05270463 3.84188612 -1 4 C-2.38956597 5.5413408 -2.38956597 5.5413408 -3.5625 7.5 C-4.81640625 9.46875 -4.81640625 9.46875 -6 11 C-6.66 11 -7.32 11 -8 11 C-6.52670958 5.99081256 -3.72484762 3.48192278 0 0 Z " fill="#C9F389" transform="translate(36,216)"/>
<path d="M0 0 C1.06927734 0.10828125 1.06927734 0.10828125 2.16015625 0.21875 C7.46793427 0.73309726 12.66791429 1.11849079 18 1 C18.33 2.32 18.66 3.64 19 5 C13.2259599 6.25522611 7.56249709 6.24737085 2 4 C0.70703125 1.91796875 0.70703125 1.91796875 0 0 Z " fill="#C2F975" transform="translate(139,283)"/>
<path d="M0 0 C2.43922361 0.08700798 4.87478414 0.19386002 7.3125 0.3125 C8.00279297 0.33505859 8.69308594 0.35761719 9.40429688 0.38085938 C14.53659705 0.6535903 14.53659705 0.6535903 16.98046875 2.48046875 C18 4 18 4 18 5 C16.20991533 5.22151549 14.41781838 5.42682213 12.625 5.625 C11.62726563 5.74101562 10.62953125 5.85703125 9.6015625 5.9765625 C8.74304688 5.98429688 7.88453125 5.99203125 7 6 C6.34 5.34 5.68 4.68 5 4 C2.67724823 3.59952556 0.34260643 3.2602896 -2 3 C-1.34 2.01 -0.68 1.02 0 0 Z " fill="#C3FD74" transform="translate(147,244)"/>
<path d="M0 0 C7.26 0.66 14.52 1.32 22 2 C21.67 2.66 21.34 3.32 21 4 C19.72382813 3.91621094 18.44765625 3.83242187 17.1328125 3.74609375 C15.46355965 3.64293768 13.79428779 3.54008901 12.125 3.4375 C11.28324219 3.38142578 10.44148437 3.32535156 9.57421875 3.26757812 C8.76855469 3.21923828 7.96289062 3.17089844 7.1328125 3.12109375 C6.38918457 3.0739624 5.64555664 3.02683105 4.87939453 2.97827148 C2.90752923 2.86421725 2.90752923 2.86421725 1 4 C0.67 2.68 0.34 1.36 0 0 Z M-8 3 C-5.81922646 3.23241804 -3.63968053 3.47179152 -1.4609375 3.72265625 C0.66944491 3.96274697 2.80328847 4.17174176 4.9375 4.375 C8 5 8 5 10 8 C9.04738281 7.7834375 8.09476563 7.566875 7.11328125 7.34375 C5.85902344 7.0653125 4.60476562 6.786875 3.3125 6.5 C2.07113281 6.2215625 0.82976562 5.943125 -0.44921875 5.65625 C-3.42398218 5.10645874 -5.99368602 4.86204295 -9 5 C-8.67 4.34 -8.34 3.68 -8 3 Z " fill="#CDF493" transform="translate(144,242)"/>
<path d="M0 0 C4.13739844 4.13739844 4.12469539 10.24280182 4.1953125 15.8125 C4.18217498 17.87509132 4.1585553 19.9376398 4.125 22 C4.11597656 23.06089844 4.10695312 24.12179688 4.09765625 25.21484375 C4.07427524 27.81013638 4.04150556 30.40494465 4 33 C3.34 33 2.68 33 2 33 C1.97494385 32.22809326 1.9498877 31.45618652 1.92407227 30.66088867 C1.80815993 27.16958819 1.68541176 23.67856078 1.5625 20.1875 C1.52318359 18.97255859 1.48386719 17.75761719 1.44335938 16.50585938 C1.40146484 15.34248047 1.35957031 14.17910156 1.31640625 12.98046875 C1.27974854 11.90692139 1.24309082 10.83337402 1.20532227 9.72729492 C1.10458153 6.90688447 1.10458153 6.90688447 0 4 C0 2.68 0 1.36 0 0 Z " fill="#87C96B" transform="translate(129,177)"/>
<path d="M0 0 C0.66 0 1.32 0 2 0 C2 7.26 2 14.52 2 22 C3.65 22 5.3 22 7 22 C7 22.66 7 23.32 7 24 C5.00045254 24.04254356 2.99958364 24.04080783 1 24 C0 23 0 23 -0.11352539 20.77514648 C-0.10828857 19.81680908 -0.10305176 18.85847168 -0.09765625 17.87109375 C-0.09443359 16.83662109 -0.09121094 15.80214844 -0.08789062 14.73632812 C-0.07951172 13.64771484 -0.07113281 12.55910156 -0.0625 11.4375 C-0.05798828 10.34501953 -0.05347656 9.25253906 -0.04882812 8.12695312 C-0.03699826 5.41791505 -0.02051543 2.70898401 0 0 Z " fill="#C5F884" transform="translate(242,235)"/>
<path d="M0 0 C0.87776229 3.14422313 0.97911796 4.86682253 0 8 C-0.185625 8.7425 -0.37125 9.485 -0.5625 10.25 C-0.706875 10.8275 -0.85125 11.405 -1 12 C-1.66 12 -2.32 12 -3 12 C-3.66 14.64 -4.32 17.28 -5 20 C-3.68 20.33 -2.36 20.66 -1 21 C-3.31 21 -5.62 21 -8 21 C-7.32512263 16.18080529 -5.42034091 12.08116134 -3.4375 7.6875 C-2.9434668 6.57665039 -2.9434668 6.57665039 -2.43945312 5.44335938 C-1.63082877 3.62688438 -0.81602884 1.81316069 0 0 Z " fill="#C8F581" transform="translate(414,238)"/>
<path d="M0 0 C0.66 0 1.32 0 2 0 C4.09230769 4.43076923 4.09230769 4.43076923 3.625 7.3125 C3.41875 7.869375 3.2125 8.42625 3 9 C2.34 9 1.68 9 1 9 C0.67 9.99 0.34 10.98 0 12 C0 11.34 0 10.68 0 10 C-0.66 10 -1.32 10 -2 10 C-2.33 10.99 -2.66 11.98 -3 13 C-3.93045933 10.44855176 -4.08564091 9.25993522 -3.22265625 6.640625 C-2.83980469 5.85171875 -2.45695312 5.0628125 -2.0625 4.25 C-1.68222656 3.45078125 -1.30195313 2.6515625 -0.91015625 1.828125 C-0.60980469 1.22484375 -0.30945313 0.6215625 0 0 Z " fill="#C0FD72" transform="translate(422,224)"/>
<path d="M0 0 C3.0390625 -0.29296875 3.0390625 -0.29296875 6.625 -0.1875 C7.81351562 -0.16042969 9.00203125 -0.13335937 10.2265625 -0.10546875 C11.14179688 -0.07066406 12.05703125 -0.03585938 13 0 C13 1.32 13 2.64 13 4 C2.44191344 4.18451025 2.44191344 4.18451025 -2 3 C-1.34 2.01 -0.68 1.02 0 0 Z " fill="#BEFE72" transform="translate(275,235)"/>
<path d="M0 0 C0.66 0 1.32 0 2 0 C2.27714844 0.62648437 2.55429687 1.25296875 2.83984375 1.8984375 C3.20207031 2.71570313 3.56429688 3.53296875 3.9375 4.375 C4.29714844 5.18710938 4.65679687 5.99921875 5.02734375 6.8359375 C5.6569903 8.23683785 6.31312642 9.62625284 7 11 C9.32156597 11.40729228 11.6568787 11.74438677 14 12 C14.33 10.68 14.66 9.36 15 8 C15.33 8.99 15.66 9.98 16 11 C15.01 12.485 15.01 12.485 14 14 C12.0546875 14.29296875 12.0546875 14.29296875 9.875 14.1875 C8.59625 14.125625 7.3175 14.06375 6 14 C4.99515796 12.04414675 3.99626195 10.08523763 3 8.125 C2.1646875 6.48917969 2.1646875 6.48917969 1.3125 4.8203125 C0 2 0 2 0 0 Z " fill="#D0F597" transform="translate(375,245)"/>
<path d="M0 0 C0.33 0.66 0.66 1.32 1 2 C2.64363134 2.72159424 4.31050386 3.39351421 6 4 C6.66 3.01 7.32 2.02 8 1 C8.66 1 9.32 1 10 1 C8.71480435 3.86697492 7.42870746 5.97607712 5 8 C3 8 3 8 1.375 6.5 C0.92125 6.005 0.4675 5.51 0 5 C-0.99 5.33 -1.98 5.66 -3 6 C-5.6875 5.0625 -5.6875 5.0625 -8 4 C-5.33333333 2.66666667 -2.66666667 1.33333333 0 0 Z " fill="#C5F485" transform="translate(329,247)"/>
<path d="M0 0 C0.66 1.32 1.32 2.64 2 4 C2.99 5.485 2.99 5.485 4 7 C3.01 8.32 2.02 9.64 1 11 C1 10.01 1 9.02 1 8 C-1.99324263 9.0975223 -2.84610901 9.67682892 -4.25 12.625 C-4.4975 13.40875 -4.745 14.1925 -5 15 C-5.66 14.34 -6.32 13.68 -7 13 C-3.535 6.565 -3.535 6.565 0 0 Z " fill="#CBF68C" transform="translate(172,260)"/>
<path d="M0 0 C0.63550781 0.18304688 1.27101562 0.36609375 1.92578125 0.5546875 C2.25578125 1.2146875 2.58578125 1.8746875 2.92578125 2.5546875 C1.75015625 2.4 1.75015625 2.4 0.55078125 2.2421875 C-4.64052234 2.68971367 -8.56554139 5.05976722 -13.07421875 7.5546875 C-9.77795933 0.77666488 -7.53305149 -1.01098236 0 0 Z " fill="#C2F47A" transform="translate(136.07421875,225.4453125)"/>
<path d="M0 0 C2.64 0.33 5.28 0.66 8 1 C8 1.33 8 1.66 8 2 C5.69 2 3.38 2 1 2 C1 2.99 1 3.98 1 5 C1.66 5 2.32 5 3 5 C5.27678571 11.96428571 5.27678571 11.96428571 4 16 C3.1319092 14.08959948 2.28098217 12.17139263 1.4375 10.25 C0.96183594 9.18265625 0.48617188 8.1153125 -0.00390625 7.015625 C-0.9946154 4.01630163 -1.16161779 2.86578759 0 0 Z " fill="#D3F496" transform="translate(364,215)"/>
<path d="M0 0 C0.94875 0.04125 1.8975 0.0825 2.875 0.125 C3.205 0.785 3.535 1.445 3.875 2.125 C1.565 2.455 -0.745 2.785 -3.125 3.125 C-3.41375 4.011875 -3.7025 4.89875 -4 5.8125 C-4.66572924 7.77270276 -5.37777366 9.71976155 -6.1875 11.625 C-7.24336433 14.44063821 -7.71030004 17.1529836 -8.125 20.125 C-8.455 20.125 -8.785 20.125 -9.125 20.125 C-9.62868582 13.32524147 -8.22184674 8.20566988 -5.125 2.125 C-3.125 0.125 -3.125 0.125 0 0 Z " fill="#CEF194" transform="translate(43.125,184.875)"/>
<path d="M0 0 C0.78375 0.04125 1.5675 0.0825 2.375 0.125 C2.375 1.445 2.375 2.765 2.375 4.125 C1.715 4.785 1.055 5.445 0.375 6.125 C-0.615 5.795 -1.605 5.465 -2.625 5.125 C-2.955 6.115 -3.285 7.105 -3.625 8.125 C-4.625 7.125 -4.625 7.125 -4.8125 4.6875 C-4.54653904 1.05270021 -3.63803315 0.17323967 0 0 Z " fill="#C1FB70" transform="translate(401.625,216.875)"/>
<path d="M0 0 C0.99 0.33 1.98 0.66 3 1 C3 1.66 3 2.32 3 3 C3.66 3 4.32 3 5 3 C5 3.99 5 4.98 5 6 C7.475 6.99 7.475 6.99 10 8 C10 8.66 10 9.32 10 10 C11.98 10.66 13.96 11.32 16 12 C16 12.66 16 13.32 16 14 C9.8836244 11.96120813 4.79656839 8.85285385 1.5625 3.1875 C1.046875 2.135625 0.53125 1.08375 0 0 Z " fill="#D0F596" transform="translate(78,303)"/>
<path d="M0 0 C0.66 0.33 1.32 0.66 2 1 C1.88610125 2.79240663 1.75852313 4.58394835 1.625 6.375 C1.55539063 7.37273437 1.48578125 8.37046875 1.4140625 9.3984375 C1 12 1 12 -1 14 C-3.35953094 11.64046906 -3.49141413 10.22104383 -4 7 C-3.34 7 -2.68 7 -2 7 C-2 5.02 -2 3.04 -2 1 C-1.34 0.67 -0.68 0.34 0 0 Z " fill="#C1F974" transform="translate(176,252)"/>
<path d="M0 0 C0.66 0 1.32 0 2 0 C2.433125 0.928125 2.86625 1.85625 3.3125 2.8125 C5.17343498 6.34645665 5.17343498 6.34645665 8 9 C8.99 9 9.98 9 11 9 C11.33 10.98 11.66 12.96 12 15 C6.47553258 12.15884533 2.94917849 8.44074469 0.6875 2.625 C0.460625 1.75875 0.23375 0.8925 0 0 Z " fill="#CBF58D" transform="translate(27,249)"/>
<path d="M0 0 C0 2.33333333 0 4.66666667 0 7 C-0.66 7.66 -1.32 8.32 -2 9 C-2.99 9 -3.98 9 -5 9 C-4.979375 8.21625 -4.95875 7.4325 -4.9375 6.625 C-4.81315937 4.01885039 -4.81315937 4.01885039 -6 2 C-4.02 1.34 -2.04 0.68 0 0 Z " fill="#BFFB70" transform="translate(228,241)"/>
<path d="M0 0 C0.4122583 0.47993408 0.8245166 0.95986816 1.24926758 1.4543457 C3.29522413 3.26064203 4.33118428 3.46846162 7.01171875 3.73046875 C7.76904297 3.81103516 8.52636719 3.89160156 9.30664062 3.97460938 C10.48516602 4.07999023 10.48516602 4.07999023 11.6875 4.1875 C12.88342773 4.3102832 12.88342773 4.3102832 14.10351562 4.43554688 C16.067844 4.63550845 18.03380412 4.81932254 20 5 C20 5.33 20 5.66 20 6 C4.25512528 6.738041 4.25512528 6.738041 -3 2 C-2.01 1.34 -1.02 0.68 0 0 Z " fill="#CDF493" transform="translate(77,241)"/>
<path d="M0 0 C0.268125 0.639375 0.53625 1.27875 0.8125 1.9375 C1.88667752 4.33131686 1.88667752 4.33131686 5 5 C5 5.66 5 6.32 5 7 C5.99 7.33 6.98 7.66 8 8 C8 9.65 8 11.3 8 13 C7.4225 12.21625 6.845 11.4325 6.25 10.625 C4.25454105 7.94401607 4.25454105 7.94401607 1.8125 6.9375 C0 6 0 6 -0.75 3.875 C-0.87375 2.946875 -0.87375 2.946875 -1 2 C-2.65 2 -4.3 2 -6 2 C-3 0 -3 0 0 0 Z " fill="#D1F693" transform="translate(61,225)"/>
<path d="M0 0 C0.66 0 1.32 0 2 0 C2.28875 0.969375 2.5775 1.93875 2.875 2.9375 C3.64214682 6.10664203 3.64214682 6.10664203 6 7 C6 8.32 6 9.64 6 11 C5.01 11.33 4.02 11.66 3 12 C0.97649676 8.96474514 0.67875982 7.80573798 0.375 4.3125 C0.30023438 3.50425781 0.22546875 2.69601563 0.1484375 1.86328125 C0.09945312 1.24839844 0.05046875 0.63351563 0 0 Z " fill="#BDFB75" transform="translate(39,206)"/>
<path d="M0 0 C0.66 0.33 1.32 0.66 2 1 C-0.31 6.28 -2.62 11.56 -5 17 C-5.33 17 -5.66 17 -6 17 C-5.46148032 11.72250715 -4.22656164 7.74354436 -2 3 C-1.34 3 -0.68 3 0 3 C0 2.01 0 1.02 0 0 Z " fill="#CBF58D" transform="translate(397,236)"/>
<path d="M0 0 C3.30616284 3.80208727 7 9.83581485 7 15 C4.43087971 14.01269344 3.24027949 13.46442081 1.953125 10.9765625 C1.72109375 10.20054687 1.4890625 9.42453125 1.25 8.625 C1.00765625 7.85414063 0.7653125 7.08328125 0.515625 6.2890625 C0 4 0 4 0 0 Z " fill="#C8F589" transform="translate(372,218)"/>
<path d="M0 0 C1.04187157 3.12561472 1.23843794 4.04680182 0 7 C-1.33333333 7.66666667 -2.66666667 8.33333333 -4 9 C-4.67156616 10.93618425 -4.67156616 10.93618425 -5 13 C-5.99 14.485 -5.99 14.485 -7 16 C-7.66 15.67 -8.32 15.34 -9 15 C-6.03 10.05 -3.06 5.1 0 0 Z " fill="#CAF28D" transform="translate(237,225)"/>
<path d="M0 0 C2.64465038 3.1254959 3.84414715 6.08788267 5 10 C4 11 4 11 2.15234375 11.09765625 C0.1015625 11.06510417 -1.94921875 11.03255208 -4 11 C-4.33 10.34 -4.66 9.68 -5 9 C-2.69 9 -0.38 9 2 9 C2 7.68 2 6.36 2 5 C1.34 5 0.68 5 0 5 C0 3.35 0 1.7 0 0 Z " fill="#D6F59D" transform="translate(447,248)"/>
<path d="M0 0 C-0.55105909 3.9492568 -1.38935371 7.34920174 -3 11 C-3.33 11 -3.66 11 -4 11 C-4.08226668 7.95613276 -3.97608217 5.92824652 -3 3 C-4.98 3 -6.96 3 -9 3 C-9 2.34 -9 1.68 -9 1 C-6.04335481 -0.4783226 -3.25770263 -0.06032783 0 0 Z " fill="#D7F69F" transform="translate(407,215)"/>
<path d="M0 0 C0.33 0 0.66 0 1 0 C1.05406122 1.93719378 1.09282025 3.87481921 1.125 5.8125 C1.14820313 6.89144531 1.17140625 7.97039062 1.1953125 9.08203125 C1 12 1 12 -1 15 C-2.47400853 12.65892762 -3.04364666 11.41464328 -2.75 8.625 C-1.91909864 5.71684524 -0.99616152 2.85566303 0 0 Z " fill="#C4F57C" transform="translate(341,231)"/>
<path d="M0 0 C0.66 0.33 1.32 0.66 2 1 C1.34 2.32 0.68 3.64 0 5 C0.66 5.66 1.32 6.32 2 7 C0.35 7.33 -1.3 7.66 -3 8 C-3 7.34 -3 6.68 -3 6 C-4.98 6 -6.96 6 -9 6 C-6.59027489 3.59027489 -4.04587368 2.49053393 -1 1 C-0.67 0.67 -0.34 0.34 0 0 Z " fill="#CCF58C" transform="translate(159,279)"/>
<path d="M0 0 C0.66 0.33 1.32 0.66 2 1 C2.36474164 6.47112462 2.36474164 6.47112462 0.75 8.8125 C-1.16591802 10.11258722 -2.72970466 10.60856977 -5 11 C-5.33 10.01 -5.66 9.02 -6 8 C-4.02 7.34 -2.04 6.68 0 6 C0 4.02 0 2.04 0 0 Z " fill="#CDF48E" transform="translate(47,187)"/>
<path d="M0 0 C0.66 0 1.32 0 2 0 C3.98128482 3.26911995 4.17354387 5.41461582 3.75 9.1875 C3.61851562 10.50814453 3.61851562 10.50814453 3.484375 11.85546875 C3.32453125 12.56316406 3.1646875 13.27085937 3 14 C2.01 14.495 2.01 14.495 1 15 C1.33 11.7 1.66 8.4 2 5 C1.01 5 0.02 5 -1 5 C-0.67 3.35 -0.34 1.7 0 0 Z " fill="#CCF493" transform="translate(175,248)"/>
<path d="M0 0 C5.24659607 0.08744327 5.24659607 0.08744327 8 1 C10.10033221 3.24110515 10.82113078 5.07845455 12 8 C11.67 8.66 11.34 9.32 11 10 C10.67 9.01 10.34 8.02 10 7 C7.98491642 6.26676204 7.98491642 6.26676204 6 6 C6 4.68 6 3.36 6 2 C3.03 1.505 3.03 1.505 0 1 C0 0.67 0 0.34 0 0 Z " fill="#C8F580" transform="translate(205,217)"/>
<path d="M0 0 C-0.66 1.32 -1.32 2.64 -2 4 C-3.65 3.67 -5.3 3.34 -7 3 C-7.33 2.01 -7.66 1.02 -8 0 C-4.71023192 -1.09658936 -3.28696233 -0.79953138 0 0 Z " fill="#C7F386" transform="translate(231,250)"/>
<path d="M0 0 C4.875 1.75 4.875 1.75 6 4 C5.34 4 4.68 4 4 4 C4.33 5.98 4.66 7.96 5 10 C4.01 10.495 4.01 10.495 3 11 C2.87625 10.360625 2.7525 9.72125 2.625 9.0625 C2.41875 8.381875 2.2125 7.70125 2 7 C1.34 6.67 0.68 6.34 0 6 C0.66 6 1.32 6 2 6 C1.34 4.02 0.68 2.04 0 0 Z " fill="#CBF791" transform="translate(64,182)"/>
<path d="M0 0 C-0.75 1.9375 -0.75 1.9375 -2 4 C-4.125 4.75 -4.125 4.75 -6 5 C-6 3.35 -6 1.7 -6 0 C-3.50907189 -1.24546405 -2.58919267 -0.7767578 0 0 Z " fill="#C8FC68" transform="translate(137,243)"/>
<path d="M0 0 C0.66 0.7425 1.32 1.485 2 2.25 C5.17520574 5.46180754 8.91316847 7.18475721 13 9 C13 9.33 13 9.66 13 10 C9.16865501 10.218934 6.41557141 9.80266269 3 8 C2.67 7.01 2.34 6.02 2 5 C1.34 4.67 0.68 4.34 0 4 C0 2.68 0 1.36 0 0 Z " fill="#D1F699" transform="translate(71,231)"/>
<path d="M0 0 C0.66 0 1.32 0 2 0 C2 0.66 2 1.32 2 2 C2.66 2 3.32 2 4 2 C5.32 4.97 6.64 7.94 8 11 C7.01 11.495 7.01 11.495 6 12 C4.02 8.04 2.04 4.08 0 0 Z " fill="#C7F18C" transform="translate(113,257)"/>
<path d="M0 0 C7.75 0.75 7.75 0.75 10 3 C8.35 3 6.7 3 5 3 C5 3.66 5 4.32 5 5 C3.68 4.67 2.36 4.34 1 4 C0.67 2.68 0.34 1.36 0 0 Z " fill="#83D062" transform="translate(157,211)"/>
<path d="M0 0 C3.16115776 1.36983503 3.9927092 1.9890638 6 5 C3.69 5.33 1.38 5.66 -1 6 C-1.042721 4.33388095 -1.04063832 2.66617115 -1 1 C-0.67 0.67 -0.34 0.34 0 0 Z " fill="#C9F784" transform="translate(125,281)"/>
<path d="M0 0 C0.33 0 0.66 0 1 0 C0.67 2.97 0.34 5.94 0 9 C1.32 9.33 2.64 9.66 4 10 C1.69 10 -0.62 10 -3 10 C-2.39009109 6.44219804 -1.4216319 3.3171411 0 0 Z " fill="#D8F697" transform="translate(409,249)"/>
<path d="M0 0 C0.99 0.33 1.98 0.66 3 1 C3 1.99 3 2.98 3 4 C3.99 4 4.98 4 6 4 C6 4.99 6 5.98 6 7 C5.34 7 4.68 7 4 7 C3.67 7.66 3.34 8.32 3 9 C2.01 6.03 1.02 3.06 0 0 Z " fill="#C1F975" transform="translate(126,272)"/>
<path d="M0 0 C3 1 3 1 4 3 C4.99 3.33 5.98 3.66 7 4 C6.34 5.32 5.68 6.64 5 8 C2.69 6.02 0.38 4.04 -2 2 C-1.34 1.34 -0.68 0.68 0 0 Z " fill="#91D160" transform="translate(175,242)"/>
<path d="M0 0 C0.66 0.33 1.32 0.66 2 1 C2 1.66 2 2.32 2 3 C0.609375 4.32421875 0.609375 4.32421875 -1.25 5.6875 C-1.85328125 6.14511719 -2.4565625 6.60273438 -3.078125 7.07421875 C-5 8 -5 8 -7.234375 7.64453125 C-7.81703125 7.43183594 -8.3996875 7.21914063 -9 7 C-7.2421875 6.05598958 -5.484375 5.11197917 -3.7265625 4.16796875 C-1.69497635 2.95236507 -1.69497635 2.95236507 0 0 Z " fill="#D2F79B" transform="translate(117,297)"/>
<path d="M0 0 C0.66 0 1.32 0 2 0 C1.8864371 1.64666203 1.75882619 3.29236082 1.625 4.9375 C1.52058594 6.31228516 1.52058594 6.31228516 1.4140625 7.71484375 C1.27742188 8.46894531 1.14078125 9.22304687 1 10 C0.01 10.495 0.01 10.495 -1 11 C-2.60080151 6.99799622 -1.29279692 3.95443764 0 0 Z " fill="#BAED77" transform="translate(75,206)"/>
<path d="M0 0 C0.33 1.32 0.66 2.64 1 4 C-0.6875 5.125 -0.6875 5.125 -3 6 C-5.75 5.125 -5.75 5.125 -8 4 C-5.33333333 2.66666667 -2.66666667 1.33333333 0 0 Z " fill="#D1F991" transform="translate(329,247)"/>
<path d="M0 0 C1.10844919 3.32534757 0.84454356 5.62182575 0 9 C-1.32 9 -2.64 9 -4 9 C-3.35455571 5.51460083 -1.89865603 2.97180943 0 0 Z " fill="#8FD472" transform="translate(78,215)"/>
<path d="M0 0 C0.33 0 0.66 0 1 0 C1 2.97 1 5.94 1 9 C-0.32 8.34 -1.64 7.68 -3 7 C-2.01 4.69 -1.02 2.38 0 0 Z " fill="#DFFCB5" transform="translate(269,241)"/>
<path d="M0 0 C0.99 0 1.98 0 3 0 C2.67 1.98 2.34 3.96 2 6 C1.67 5.34 1.34 4.68 1 4 C0.01 4 -0.98 4 -2 4 C-1.34 2.68 -0.68 1.36 0 0 Z " fill="#C3F878" transform="translate(170,268)"/>
<path d="M0 0 C1.65 0 3.3 0 5 0 C5 1.32 5 2.64 5 4 C3.35 4 1.7 4 0 4 C0 2.68 0 1.36 0 0 Z " fill="#C2FD6D" transform="translate(444,253)"/>
<path d="M0 0 C0.433125 0.61875 0.86625 1.2375 1.3125 1.875 C2.99740483 4.2197245 2.99740483 4.2197245 6 6 C3.625 6.625 3.625 6.625 1 7 C0.34 6.34 -0.32 5.68 -1 5 C-0.625 2.375 -0.625 2.375 0 0 Z " fill="#CDFA85" transform="translate(308,246)"/>
<path d="M0 0 C0.66 0 1.32 0 2 0 C2 0.99 2 1.98 2 3 C2.66 3 3.32 3 4 3 C4 5.31 4 7.62 4 10 C1.81024227 6.71536341 1.00193437 3.79303725 0 0 Z " fill="#CBF583" transform="translate(431,230)"/>
<path d="M0 0 C2.61527381 2.36620011 4.26440562 4.942048 6 8 C3.5625 7.375 3.5625 7.375 1 6 C0.1875 2.875 0.1875 2.875 0 0 Z " fill="#CBF592" transform="translate(41,206)"/>
<path d="M0 0 C0.94875 0.04125 1.8975 0.0825 2.875 0.125 C1.6875 1.6875 1.6875 1.6875 -0.125 3.125 C-2.8125 2.8125 -2.8125 2.8125 -5.125 2.125 C-3.125 0.125 -3.125 0.125 0 0 Z " fill="#D5F6A2" transform="translate(58.125,188.875)"/>
</svg>
